<svg id="Layer_1" enable-background="new 0 0 512 512" height="512" viewBox="0 0 512 512" width="512" xmlns="http://www.w3.org/2000/svg"><g><path d="m80 111c0-50.258 40.742-91 91-91h-60c-50.258 0-91 40.742-91 91 0 50.258 40.742 91 91 91h60c-50.258 0-91-40.742-91-91z" fill="#c6e1f2"/><path d="m414 377c-35.841 0-65-29.159-65-65s29.159-65 65-65 65 29.159 65 65-29.159 65-65 65zm0-90c-13.785 0-25 11.215-25 25s11.215 25 25 25 25-11.215 25-25-11.215-25-25-25zm-164 101c-35.841 0-65-29.159-65-65s29.159-65 65-65 65 29.159 65 65-29.159 65-65 65zm0-90c-13.785 0-25 11.215-25 25s11.215 25 25 25 25-11.215 25-25-11.215-25-25-25zm-52 194c0-21.505 17.716-39 39.491-39h34.509c11.046 0 20-8.954 20-20s-8.954-20-20-20h-34.509c-43.832 0-79.491 35.439-79.491 79 0 11.046 8.954 20 20 20s20-8.954 20-20zm-110-104c-35.841 0-65-29.159-65-65s29.159-65 65-65 65 29.159 65 65-29.159 65-65 65zm0-90c-13.785 0-25 11.215-25 25s11.215 25 25 25 25-11.215 25-25-11.215-25-25-25zm-48 194c0-21.505 17.716-39 39.491-39h40.509c11.046 0 20-8.954 20-20s-8.954-20-20-20h-40.509c-43.832 0-79.491 35.439-79.491 79 0 11.046 8.954 20 20 20s20-8.954 20-20zm313.005-270c-5.206 0-10.32-2.032-14.147-5.858l-1.808-1.808c-9.733-9.732-24.527-12.163-36.817-6.045-18.273 9.098-38.015 13.71-58.678 13.71-.021 0-.043 0-.063 0h-130.492c-61.206.001-111-49.793-111-110.999s49.794-111 111-111h151c61.206 0 111 49.794 111 111v91c0 8.089-4.873 15.382-12.347 18.478-2.473 1.024-5.073 1.522-7.648 1.522zm-242.005-182c-39.149 0-71 31.851-71 71s31.851 71 71 71h130.5.045c14.432 0 28.174-3.202 40.859-9.518 16.078-8.005 34.058-9.524 50.596-5.107v-56.375c0-39.149-31.851-71-71-71z" fill="#0023c4"/><path d="m492 512c-11.046 0-20-8.954-20-20 0-29.163-23.874-52.889-53.22-52.889h-13.56c-29.346 0-53.22 23.726-53.22 52.889 0 11.046-8.954 20-20 20s-20-8.954-20-20c0-51.219 41.818-92.889 93.22-92.889h13.561c51.401 0 93.22 41.67 93.22 92.889-.001 11.046-8.955 20-20.001 20zm-412-401c0 13.807 11.193 25 25 25s25-11.193 25-25c0-13.807-11.193-25-25-25s-25 11.193-25 25zm80 0c0 13.807 11.193 25 25 25s25-11.193 25-25c0-13.807-11.193-25-25-25s-25 11.193-25 25zm80 0c0 13.807 11.193 25 25 25s25-11.193 25-25c0-13.807-11.193-25-25-25s-25 11.193-25 25z" fill="#ff5cf3"/></g></svg>