<svg id="Layer_1" enable-background="new 0 0 512 512" height="512" viewBox="0 0 512 512" width="512" xmlns="http://www.w3.org/2000/svg"><g><path d="m398.9 264.699-4.318 2.224c-10.64 5.451-23.252 5.435-33.878-.045l-76.594-39.698c-12.35-6.368-20.11-19.11-20.11-33.018v-97.717c0-13.935 7.79-26.697 20.175-33.052l76.594-39.305c10.59-5.435 23.142-5.451 33.747-.044l3.352 1.709-53.692 27.553c-12.386 6.354-20.176 19.116-20.176 33.051v116.926c0 13.908 7.76 26.65 20.109 33.018zm-318.9 71.301v-264h-8c-28.719 0-52-23.281-52-52v316c0 28.719 23.281 52 52 52h60c-28.719 0-52-23.281-52-52z" fill="#cee1f2"/><path d="m288 305c0 11.046-8.954 20-20 20h-128c-11.046 0-20-8.954-20-20s8.954-20 20-20h128c11.046 0 20 8.954 20 20zm-148-55h47c11.046 0 20-8.954 20-20s-8.954-20-20-20h-47c-11.046 0-20 8.954-20 20s8.954 20 20 20zm289.532-133.624c-5.316-9.683-17.473-13.224-27.157-7.908l-24.781 13.604-25.026-13.635c-9.7-5.287-21.846-1.707-27.131 7.994-5.285 9.699-1.706 21.847 7.994 27.131l25.569 13.93v25.508c0 11.046 8.954 20 20 20s20-8.954 20-20v-27.048l22.625-12.42c9.682-5.315 13.222-17.473 7.907-27.156z" fill="#ff5cf4"/><path d="m512 303v134c0 .339-.034.669-.051 1.003.019.665.051 1.327.051 1.997 0 39.701-32.299 72-72 72-18.318 0-35.774-6.886-49.152-19.388-8.07-7.542-8.499-20.198-.957-28.268s20.198-8.498 28.268-.957c5.943 5.554 13.699 8.613 21.841 8.613 17.645 0 32-14.355 32-32s-14.355-32-32-32h-368c-39.701 0-72-32.299-72-72v-316c0-11.046 8.954-20 20-20s20 8.954 20 20c0 17.645 14.355 32 32 32h120c11.046 0 20 8.954 20 20s-8.954 20-20 20h-120c-11.488 0-22.354-2.703-32-7.51v251.51c0 17.645 14.355 32 32 32h368c11.491 0 22.353 2.72 32 7.528v-72.528c0-11.046 8.954-20 20-20s20 8.954 20 20zm0-206.488v97.583c0 21.553-11.908 41.043-31.077 50.862l-77.185 39.747c-8.17 4.187-17.12 6.278-26.062 6.278-8.983 0-17.959-2.109-26.139-6.328l-76.631-39.718c-19.049-9.822-30.906-29.285-30.906-50.775v-97.716c0-21.537 11.895-41.021 31.043-50.847l76.595-39.305c16.258-8.342 35.682-8.367 51.961-.069l77.224 39.373c19.231 9.805 31.177 29.314 31.177 50.915zm-40 0c0-6.485-3.581-12.34-9.346-15.279l-77.223-39.373c-2.425-1.236-5.085-1.854-7.745-1.854-2.675 0-5.35.625-7.786 1.876l-76.595 39.305c-5.74 2.945-9.306 8.792-9.306 15.259v97.716c0 6.452 3.554 12.293 9.274 15.242l76.632 39.719c4.842 2.496 10.671 2.505 15.554.001l77.187-39.747c5.783-2.962 9.352-8.811 9.352-15.281v-97.584z" fill="#0023c4"/></g></svg>