<svg id="Layer_1" enable-background="new 0 0 512 512" height="512" viewBox="0 0 512 512" width="512" xmlns="http://www.w3.org/2000/svg"><g><path d="m132 388h-60c-28.719 0-52-23.281-52-52v-316c0 28.719 23.281 52 52 52h8v264c0 28.719 23.281 52 52 52zm223.449-183.155 18.876-85.508c4.824-24.134 16.685-46.3 34.088-63.704l35.408-35.408c-15.121-1.375-30.721 3.722-42.298 15.298l-61.109 61.109c-17.403 17.403-29.264 39.569-34.088 63.704l-11.326 56.664s59.192-11.863 60.449-12.155z" fill="#cee1f2"/><g fill="#0023c4"><path d="m492 189c-11.046 0-20 8.954-20 20v166.528c-9.647-4.808-20.509-7.528-32-7.528h-368c-17.645 0-32-14.355-32-32v-251.509c9.646 4.805 20.512 7.509 32 7.509h184c11.046 0 20-8.954 20-20s-8.954-20-20-20h-184c-17.645 0-32-14.355-32-32 0-11.046-8.954-20-20-20s-20 8.954-20 20v316c0 39.701 32.299 72 72 72h368c17.645 0 32 14.355 32 32s-14.355 32-32 32c-8.142 0-15.898-3.059-21.842-8.612-8.067-7.541-20.726-7.113-28.268.957s-7.113 20.726.957 28.268c13.379 12.502 30.835 19.387 49.153 19.387 39.701 0 72-32.299 72-72 0-.67 0-231 0-231 0-11.046-8.954-20-20-20z"/><path d="m280.857 231.142c3.789 3.788 8.891 5.858 14.143 5.858 1.303 0 2.616-.128 3.92-.388l56.664-11.326c28.1-5.617 53.662-19.296 73.926-39.558l61.108-61.109c13.788-13.788 21.382-32.12 21.382-51.619s-7.594-37.831-21.382-51.619-32.12-21.381-51.618-21.381c-19.499 0-37.831 7.593-51.619 21.381l-61.109 61.109c-20.264 20.263-33.942 45.827-39.559 73.926l-11.326 56.664c-1.31 6.556.743 13.334 5.47 18.062zm45.081-66.886c4.063-20.329 13.958-38.822 28.618-53.481l61.109-61.109c6.233-6.233 14.521-9.666 23.335-9.666s17.102 3.433 23.335 9.666c6.232 6.232 9.665 14.52 9.665 23.334s-3.433 17.102-9.666 23.334l-61.108 61.109c-14.66 14.659-33.153 24.555-53.481 28.618l-27.253 5.447z"/></g><path d="m328 325h-188c-11.046 0-20-8.954-20-20s8.954-20 20-20h188c11.046 0 20 8.954 20 20s-8.954 20-20 20zm-101-95c0-11.046-8.954-20-20-20h-67c-11.046 0-20 8.954-20 20s8.954 20 20 20h67c11.046 0 20-8.954 20-20z" fill="#ff5cf3"/></g></svg>